PathFileType	4	(X/Y/Z)	C:\Users\86182\Documents\cortex\Trimmed_M4_L8.trc
DataRate	CameraRate	NumFrames	NumMarkers	Units	OrigDataRate	OrigDataStartFrame	OrigNumFrames
100.00	100.00	       72	2	mm	100.00	1	       901
Frame#	Time	gripper			box			
		X1	Y1	Z1	X2	Y2	Z2	

1	0.000	277.08350	150.09251	192.14545	278.69644	148.46606	57.39785	
2	0.010	277.08334	150.09258	192.14500	278.69278	148.46725	57.39890	
3	0.020	277.08182	150.09224	192.14365	278.69107	148.46736	57.39877	
4	0.030	277.07910	150.09152	192.14154	278.69080	148.46698	57.39799	
5	0.040	277.07556	150.09050	192.13907	278.69128	148.46678	57.39727	
6	0.050	277.07181	150.08929	192.13673	278.69168	148.46736	57.39738	
7	0.060	277.06842	150.08813	192.13483	278.69159	148.46872	57.39854	
8	0.070	277.06570	150.08717	192.13345	278.69110	148.47043	57.40028	
9	0.080	277.06384	150.08650	192.13252	278.69040	148.47200	57.40205	
10	0.090	277.06284	150.08615	192.13196	278.68954	148.47314	57.40358	
11	0.100	277.06271	150.08614	192.13179	278.68848	148.47374	57.40474	
12	0.110	277.06335	150.08640	192.13205	278.68756	148.47369	57.40533	
13	0.120	277.06461	150.08685	192.13268	278.68735	148.47308	57.40508	
14	0.130	277.06625	150.08745	192.13353	278.68839	148.47202	57.40388	
15	0.140	277.06815	150.08817	192.13438	278.69086	148.47076	57.40183	
16	0.150	277.07004	150.08893	192.13512	278.69473	148.46962	57.39925	
17	0.160	277.07178	150.08965	192.13571	278.69955	148.46870	57.39655	
18	0.170	277.07343	150.09032	192.13635	278.70468	148.46799	57.39405	
19	0.180	277.07510	150.09093	192.13715	278.70966	148.46735	57.39191	
20	0.190	277.07669	150.09148	192.13800	278.71405	148.46667	57.39014	
21	0.200	277.07785	150.09186	192.13870	278.71753	148.46599	57.38870	
22	0.210	277.07852	150.09207	192.13916	278.71985	148.46553	57.38758	
23	0.220	277.07883	150.09215	192.13939	278.72086	148.46547	57.38688	
24	0.230	277.07892	150.09215	192.13950	278.72076	148.46565	57.38660	
25	0.240	277.07889	150.09210	192.13962	278.71988	148.46588	57.38673	
26	0.250	277.07883	150.09196	192.13988	278.71860	148.46623	57.38732	
27	0.260	277.07877	150.09174	192.14047	278.71707	148.46704	57.38850	
28	0.270	277.07889	150.09143	192.14154	278.71515	148.46844	57.39034	
29	0.280	277.07938	150.09111	192.14313	278.71252	148.47021	57.39288	
30	0.290	277.08017	150.09084	192.14510	278.70905	148.47198	57.39601	
31	0.300	277.08099	150.09062	192.14700	278.70471	148.47356	57.39946	
32	0.310	277.08148	150.09042	192.14832	278.70004	148.47484	57.40288	
33	0.320	277.08139	150.09018	192.14879	278.69562	148.47577	57.40584	
34	0.330	277.08069	150.08987	192.14856	278.69189	148.47635	57.40801	
35	0.340	277.07968	150.08957	192.14792	278.68900	148.47656	57.40932	
36	0.350	277.07870	150.08932	192.14713	278.68698	148.47636	57.40970	
37	0.360	277.07779	150.08917	192.14618	278.68622	148.47549	57.40893	
38	0.370	277.07678	150.08902	192.14503	278.68680	148.47380	57.40695	
39	0.380	277.07547	150.08879	192.14371	278.68835	148.47131	57.40412	
40	0.390	277.07373	150.08835	192.14233	278.69049	148.46834	57.40101	
41	0.400	277.07144	150.08757	192.14102	278.69308	148.46519	57.39788	
42	0.410	277.06863	150.08649	192.13983	278.69632	148.46207	57.39465	
43	0.420	277.06573	150.08527	192.13882	278.70013	148.45924	57.39125	
44	0.430	277.06323	150.08417	192.13811	278.70438	148.45703	57.38787	
45	0.440	277.06168	150.08345	192.13776	278.70880	148.45573	57.38499	
46	0.450	277.06146	150.08333	192.13780	278.71301	148.45547	57.38318	
47	0.460	277.06274	150.08389	192.13815	278.71622	148.45624	57.38285	
48	0.470	277.06500	150.08496	192.13858	278.71759	148.45798	57.38402	
49	0.480	277.06735	150.08617	192.13875	278.71701	148.46054	57.38628	
50	0.490	277.06909	150.08722	192.13846	278.71515	148.46364	57.38914	
51	0.500	277.07016	150.08803	192.13780	278.71283	148.46698	57.39233	
52	0.510	277.07083	150.08867	192.13701	278.71051	148.47023	57.39573	
53	0.520	277.07132	150.08920	192.13626	278.70831	148.47314	57.39912	
54	0.530	277.07162	150.08960	192.13562	278.70636	148.47545	57.40208	
55	0.540	277.07166	150.08978	192.13516	278.70486	148.47694	57.40394	
56	0.550	277.07141	150.08975	192.13489	278.70428	148.47736	57.40394	
57	0.560	277.07108	150.08960	192.13480	278.70505	148.47636	57.40165	
58	0.570	277.07092	150.08948	192.13487	278.70703	148.47404	57.39742	
59	0.580	277.07117	150.08951	192.13516	278.70941	148.47095	57.39244	
60	0.590	277.07184	150.08968	192.13574	278.71140	148.46777	57.38791	
61	0.600	277.07269	150.08981	192.13666	278.71289	148.46489	57.38432	
62	0.610	277.07355	150.08983	192.13789	278.71414	148.46230	57.38159	
63	0.620	277.07425	150.08969	192.13939	278.71533	148.45995	57.37968	
64	0.630	277.07471	150.08937	192.14096	278.71655	148.45784	57.37856	
65	0.640	277.07477	150.08887	192.14241	278.71783	148.45609	57.37811	
66	0.650	277.07440	150.08829	192.14351	278.71899	148.45491	57.37830	
67	0.660	277.07388	150.08778	192.14413	278.71945	148.45486	57.37935	
68	0.670	277.07339	150.08749	192.14418	278.71878	148.45628	57.38128	
69	0.680	277.07278	150.08743	192.14345	278.71725	148.45882	57.38361	
70	0.690	277.07181	150.08746	192.14188	278.71570	148.46143	57.38553	
71	0.700	277.07037	150.08746	192.13972	278.71475	148.46321	57.38665	
72	0.710	277.06870	150.08733	192.13751	278.71460	148.46400	57.38719	
